<svg xmlns="http://www.w3.org/2000/svg" class="icon icon-tabler icon-tabler-plant" width="24" height="24" viewBox="0 0 24 24" stroke-width="1.5" stroke="currentColor" fill="none" stroke-linecap="round" stroke-linejoin="round"><path stroke="none" d="M0 0h24v24H0z" fill="none" class="svg-elem-1"></path><path d="M7 15h10v4a2 2 0 0 1 -2 2h-6a2 2 0 0 1 -2 -2v-4z" class="svg-elem-2"></path><path d="M12 9a6 6 0 0 0 -6 -6h-3v2a6 6 0 0 0 6 6h3" class="svg-elem-3"></path><path d="M12 11a6 6 0 0 1 6 -6h3v1a6 6 0 0 1 -6 6h-3" class="svg-elem-4"></path><path d="M12 15l0 -6" class="svg-elem-5"></path></svg>